<svg xmlns="http://www.w3.org/2000/svg" width="27" height="24" viewBox="0 0 27 24">
  <path id="Icon_material-call" data-name="Icon material-call" d="M9.93,14.887a21.632,21.632,0,0,0,9.885,8.787l3.3-2.933a1.626,1.626,0,0,1,1.53-.32A19.073,19.073,0,0,0,30,21.18a1.428,1.428,0,0,1,1.5,1.333v4.653A1.428,1.428,0,0,1,30,28.5C15.915,28.5,4.5,18.353,4.5,5.833A1.428,1.428,0,0,1,6,4.5h5.25a1.428,1.428,0,0,1,1.5,1.333,13.62,13.62,0,0,0,.855,4.76,1.236,1.236,0,0,1-.375,1.36l-3.3,2.933Z" transform="translate(-4.5 -4.5)" fill="#d8e8ea"/>
</svg>
